<?xml version="1.0" encoding="UTF-8"?>
<!DOCTYPE svg PUBLIC "-//W3C//DTD SVG 1.1//EN" "http://www.w3.org/Graphics/SVG/1.1/DTD/svg11.dtd">
<!-- Creator: CorelDRAW -->
<svg xmlns="http://www.w3.org/2000/svg" xml:space="preserve" width="191.935mm" height="191.935mm" style="shape-rendering:geometricPrecision; text-rendering:geometricPrecision; image-rendering:optimizeQuality; fill-rule:evenodd; clip-rule:evenodd"
viewBox="0 0 191.935 191.935"
 xmlns:xlink="http://www.w3.org/1999/xlink">
 <defs>
  <style type="text/css">
   <![CDATA[
    .fil1 {fill:#1F1A17}
    .fil2 {fill:#DE411A}
    .fil0 {fill:#FACF00}
    .fil3 {fill:#1F1A17;fill-rule:nonzero}
   ]]>
  </style>
 </defs>
 <g id="Ebene_x0020_1">
  <metadata id="CorelCorpID_0Corel-Layer"/>
  <g id="_81132720">
   <path id="_78721264" class="fil0" d="M-0 95.9772c0,-52.9997 42.9612,-95.9729 95.9618,-95.9772l0.0158 0c52.9925,0.0043 95.9575,42.9774 95.9575,95.9773 0.0001,52.4434 -42.0664,95.0614 -94.2879,95.9577l-3.3553 0c-52.2293,-0.8963 -94.2919,-43.5143 -94.2919,-95.9578z"/>
   <g>
    <path id="_81807544" class="fil1" d="M26.8687 81.8109c0.4229,0.3568 1.1989,0.977201 1.748,1.1728 1.3423,0.4783 2.5334,-0.163 3.0225,-1.5358 0.4239,-1.1898 0.2774,-2.0327 -0.5793,-2.7161l-3.1933 -2.6162 2.8695 -8.0537 4.1173 0.023c1.1067,-0.0181 1.7858,-0.67 2.1772,-1.7682 0.4565,-1.2814 -0.1393,-2.6968 -1.3596,-3.1316 -0.549,-0.1957 -1.5424,-0.2058 -2.0958,-0.1967l-18.9612 0.0511c-1.7515,-0.0053 -2.3847,0.9037 -2.7869,2.0324l-0.4239 1.1897c-0.4348,1.2203 -0.3208,2.1548 0.6557,2.984l14.8098 12.5653zm-0.0016 -13.8899l-2.087 5.8572 -7.762 -6.1005 0.0218 -0.0609 9.82721 0.3042z"/>
    <path id="_81059232" class="fil1" d="M37.177 61.4011c1.3371,0.8546 2.7957,0.5571 3.6678,-0.8073 0.8721,-1.3644 0.5297,-2.8131 -0.8074,-3.6677l-13.9982 -8.9475 2.7034 -4.2295c0.8198,-1.2825 0.8276,-2.738 -0.4003,-3.5229 -1.2279,-0.7849 -2.5456,-0.1666 -3.3653,1.1159l-8.2673 12.9341c-0.8197,1.2825 -0.8276,2.738 0.4003,3.5229 1.2279,0.7848 2.5456,0.1665 3.3653,-1.116l2.7035 -4.2295 13.9982 8.9475z"/>
    <path id="_78804640" class="fil1" d="M34.1015 47.2249c4.8449,5.1352 11.0754,6.7368 17.1528,1.0029 5.7948,-5.4672 4.5073,-12.4003 -0.0042,-17.1821 -4.6892,-4.9703 -11.1936,-5.8238 -16.7528,-0.5789 -5.5591,5.2448 -5.0851,11.7878 -0.3958,16.7581l0 0zm3.8632 -3.6448c-3.067,-3.2507 -3.6903,-7.0259 -0.5338,-10.004 3.1565,-2.9781 6.8891,-2.1363 9.95611,1.1144 3.067,3.2506 4.4436,7.1166 0.9337,10.428 -3.6275,3.4224 -7.2891,1.7123 -10.3561,-1.5384l0.0001 0z"/>
    <path id="_82516960" class="fil1" d="M57.0192 38.7425c0.5518,1.2077 1.6658,2.0874 3.2269,1.374 1.5612,-0.7133 1.6254,-2.1312 1.0736,-3.3389l-6.0026 -13.1374 0.0589 -0.0269 10.9401 12.0207c0.7815,0.8534 1.7064,0.9294 2.7079,0.4718 1.0015,-0.4577 1.5494,-1.2064 1.4159,-2.356l-1.9266 -16.1391 0.0589 -0.0269 6.0027 13.1372c0.5518,1.2077 1.6658,2.0874 3.2269,1.3741 1.5612,-0.7134 1.6254,-2.1313 1.0736,-3.339l-7.8734 -17.2317c-0.8883,-1.9441 -2.4157,-1.7803 -3.7118,-1.1881l-1.3549 0.6191c-1.5023,0.6864 -1.94,1.5986 -1.7006,3.4474l2.0648 15.5063 -0.059 0.0269 -10.4301 -11.684c-1.241,-1.3912 -2.2171,-1.6573 -3.7194,-0.970901l-1.4139 0.646c-1.296,0.5921 -2.4197,1.6397 -1.5314,3.5838l7.8735 17.2316z"/>
    <path id="_82549488" class="fil1" d="M80.2862 28.8617c0.1709,1.5777 1.3163,2.5286 2.9261,2.3542 1.6098,-0.1745 2.525,-1.3485 2.3541,-2.9261l-0.5684 -5.2481 2.5837 -3.2116 7.1036 8.7422c0.8305,1.0502 1.4378,1.245 2.5003,1.1299 1.2557,-0.1361 2.6418,-0.8725 2.429,-2.8365 -0.0732,-0.6762 -0.6616,-1.2965 -1.2248,-1.9847l-7.4639 -9.0615 4.7917 -6.2848c0.4019,-0.4996 0.7612,-1.0922 0.674,-1.8971 -0.1465,-1.3524 -1.4859,-1.989 -2.7415,-1.853 -0.9337,0.1011 -1.4253,0.6756 -1.9673,1.3858l-7.3162 10.0437 -0.83 -7.6629c-0.1709,-1.5775 -1.3164,-2.5284 -2.9262,-2.354 -1.6098,0.1743 -2.525,1.3485 -2.3541,2.9261l2.0299 18.7384z"/>
    <path id="_80545800" class="fil1" d="M100.765 27.0196c-0.3178,1.5547 0.4834,2.8093 2.0698,3.1336 1.5866,0.3243 2.8158,-0.5153 3.1336,-2.07l1.3685 -6.6949 5.14 1.0507c2.8556,0.5837 3.2547,2.3511 2.4375,6.3489 -0.1881,0.9201 -0.5302,3.726 2.3254,4.3097 1.2057,0.2464 2.6118,-0.3256 2.8582,-1.5313 0.2206,-1.0788 -0.2765,-2.2051 0.2618,-4.8386 0.4735,-2.3163 0.3931,-4.349 -2.1943,-5.2745l0.013 -0.0635c2.5916,-0.0653 4.5505,-2.21 5.0564,-4.6849 0.6032,-2.9508 -0.3529,-6.683 -6.54,-7.9477l-8.662 -1.7705c-1.8403,-0.3762 -3.1952,0.1072 -3.6686,2.4234l-3.5993 17.6096zm8.6083 -15.5941l5.3622 1.0959c2.2845,0.4671 3.646,1.4065 3.1466,3.8496 -0.5253,2.57 -2.5963,2.6756 -4.5635,2.2735l-5.2034 -1.0636 1.2581 -6.1554z"/>
    <path id="_81197800" class="fil1" d="M122.705 30.1828c-0.4273,0.3516 -1.1774,1.0031 -1.4688,1.508 -0.7124,1.234 -0.2963,2.5213 0.965801,3.2499 1.0938,0.6313 1.9494,0.6392 2.776,-0.0802l3.149 -2.6695 7.4045 4.2743 -0.765 4.0458c-0.1814,1.0918 0.3372,1.8773 1.3469,2.4602 1.178,0.68 2.6778,0.3492 3.3254,-0.7727 0.2914,-0.5049 0.4805,-1.4801 0.5713,-2.026l3.3678 -18.6599c0.3209,-1.7218 -0.459,-2.5085 -1.4967,-3.1075l-1.0938 -0.6315c-1.1219,-0.6476 -2.0617,-0.704 -3.0534,0.1071l-15.029 12.302zm13.6625 2.5023l-5.3851 -3.1086 7.3998 -6.5352 0.0561 0.0324 -2.0708 9.61141z"/>
    <path id="_80955160" class="fil1" d="M140.182 42.8867c-1.1399,1.104 -1.1867,2.5919 -0.0603,3.7551 1.1266,1.1632 2.6152,1.1642 3.7551,0.0603l5.2345 -5.0692 5.5873 5.7695c0.968701,1.0003 2.0138,1.521 3.2003,0.372 1.1865,-1.1491 0.6996,-2.2103 -0.2691,-3.2107l-5.5873 -5.7695 3.9084 -3.7849 6.6011 6.8163c1.0814,1.1167 2.1956,1.6156 3.4053,0.444 1.2098,-1.1716 0.7469,-2.3012 -0.3345,-3.4178l-8.1331 -8.3984c-1.3067,-1.3493 -2.6979,-1.7151 -4.3962,-0.0705l-12.9115 12.5038z"/>
    <path id="_81825248" class="fil1" d="M153.986 59.0089c-1.3673,0.8053 -1.7624,2.2406 -0.9407,3.6359 0.8217,1.3953 2.2684,1.746 3.6358,0.9407l14.3156 -8.4304 2.5473 4.3254c0.7723,1.3116 2.0665,1.9776 3.3223,1.2381 1.2557,-0.7395 1.301,-2.1943 0.5286,-3.5059l-7.7894 -13.2273c-0.7724,-1.3116 -2.0666,-1.9776 -3.3224,-1.2381 -1.2558,0.7395 -1.301,2.1943 -0.5287,3.5059l2.5473 4.3254 -14.3157 8.4303z"/>
    <path id="_80944176" class="fil1" d="M174.947 65.4522c-1.2461,0.3535 -1.6353,1.4738 -1.3259,2.5643 0.8574,3.022 4.5279,0.2975 5.6593,4.2854 0.5304,1.8693 -0.1484,3.2738 -1.8308,3.7511 -3.0532,0.8662 -5.4413,-4.3473 -9.1488,-3.2955 -0.996901,0.2828 -1.9018,1.2465 -1.5217,2.5862 0.5835,2.0562 2.0393,1.3739 3.3419,1.8122 1.7472,0.5815 4.6219,4.7818 8.6721,3.6327 4.393,-1.2464 5.1174,-5.6934 3.986,-9.68131 -1.0783,-3.8009 -4.7789,-6.5213 -7.8321,-5.6551l0 0zm-13.4372 8.7607c-1.4019,0.3977 -2.2277,1.8775 -1.8299,3.2795 0.3978,1.402 1.8775,2.2277 3.2795,1.83 1.4021,-0.3978 2.2277,-1.8776 1.83,-3.2796 -0.3977,-1.402 -1.8776,-2.2277 -3.2796,-1.8299z"/>
   </g>
   <path id="_81651040" class="fil2" d="M57.1809 72.6388c2.6059,-2.472 -0.3147,-12.0072 -0.3147,-12.0072 0.0001,-0.0001 6.2688,4.9116 11.2776,2.3744 5.0035,-2.5339 3.7246,-13.7124 3.7246,-13.7124 0,0 5.2508,9.73811 11.6096,7.9717 6.3634,-1.7747 8.0802,-10.6261 8.0802,-10.6261 0,-0.0001 0.0503,9.5339 6.6573,9.5355 6.596,0.001 11.1584,-9.4711 11.1584,-9.4711 0.0001,-0.0001 -0.2462,10.9514 4.3234,12.4401 4.581,1.4803 11.3644,-4.8417 11.3644,-4.8417 0,-0.0001 -2.1445,9.94181 2.7378,12.7476 4.8682,2.8091 12.5511,-1.3557 12.5511,-1.3557 0,-0.0002 -7.5645,8.7059 -4.7932,12.6286 2.7748,3.9416 9.4297,2.2488 9.4297,2.2488 0.0002,-0.0001 -4.2598,5.2132 -3.7587,10.4228 0.3632,3.7281 10.8565,6.6617 10.8565,6.6617 0.0002,0 -7.1372,2.3175 -8.8708,7.7042 -1.7326,5.385 3.464,10.0568 3.464,10.0568 0,0 -4.8087,-0.6181 -7.7726,3.97 -2.9483,4.587 0.976401,8.754 0.976401,8.754 0,0 -6.3006,-3.0345 -10.4682,0.5483 -4.1848,3.5769 -2.351,9.67381 -2.351,9.67381 0.0001,-0.0001 -6.0746,-4.6512 -10.5429,-2.3957 -4.4855,2.2504 -5.3172,8.4146 -5.3172,8.4146 0.0001,0.0001 -3.9874,-6.5692 -8.5244,-6.4506 -4.5338,0.1193 -6.1362,7.3647 -6.1362,7.3647 0.0001,0 -2.6762,-7.3995 -7.4994,-8.0782 -4.8238,-0.6699 -10.6712,7.4928 -10.6712,7.4928 0,0 1.018,-9.1052 -3.075,-12.4722 -4.0932,-3.3584 -13.9982,2.7711 -13.9982,2.7711 0,0 3.734,-7.3034 0.6917,-11.2294 -3.0378,-3.9343 -12.1723,1.1156 -12.1723,1.1156 0,0 3.7279,-7.5779 2.0064,-12.0665 -1.7178,-4.4928 -21.9629,-5.5701 -21.9629,-5.5701 0,0 16.325,-5.7693 17.2615,-10.8588 0.9319,-5.0972 -6.5923,-9.97551 -6.5923,-9.97551 0,0 7.9746,0.0575 9.71081,-3.4625 1.732,-3.5124 -3.654,-10.0459 -3.654,-10.0459 0,0 7.9874,2.1877 10.5938,-0.2775z"/>
   <g>
    <path id="_80858752" class="fil1" d="M84.1086 86.1695c0,0 1.6418,1.8557 3.2639,0.9572 1.6235,-0.8982 -0.8745,-4.753 -0.8745,-4.753 0,-0.0001 -2.5439,-3.9373 -7.8987,-4.1271 -7.0129,-0.241 -12.2037,5.2623 -12.2037,5.2623 0,0 -2.6275,3.5649 -2.172,4.0242 0.453,0.4614 2.8666,-2.0422 2.8666,-2.0422 0.0001,-0.0001 4.0972,-4.9672 11.0409,-4.2891 4.3756,0.4141 5.9711,4.8249 5.9775,4.9677z"/>
    <path id="_78765152" class="fil1" d="M104.6 103.096c1.87,-0.4124 -1.3668,-3.1009 -3.7491,-10.8154 -1.5754,-5.108 -1.1969,-8.8272 -1.8499,-9.2266 -1.0206,-0.599 -1.9495,2.291 -0.4802,10.2997 0.5533,3.0035 2.6568,10.4895 6.0792,9.74231z"/>
    <path id="_78682336" class="fil1" d="M125.194 90.1228c0,0 2.0369,2.044 3.2127,0.9144 1.1593,-1.1409 0.0226,-4.1973 0.0226,-4.1973 0.0681,-0.4277 -3.3059,-4.4715 -6.9011,-5.109 -4.7751,-0.8396 -8.576,-0.5976 -13.2838,2.9408 0.0001,-0.0001 -4.1169,3.6992 -3.2763,4.372 0.8224,0.6705 2.7443,-1.8676 2.7443,-1.8676 0.0001,-0.0001 6.1821,-5.0589 11.4406,-3.4414 5.2434,1.6227 6.041,6.3881 6.041,6.3881z"/>
    <path id="_81117720" class="fil1" d="M104.033 116.679c18.1638,-1.6683 20.2109,-11.9478 19.583,-9.99801l1.0541 -0.2636c0,0 -2.4409,11.0346 -20.1824,13.7845 -16.5312,2.5692 -31.1828,-15.8874 -29.3981,-13.4366l-2.5078 0.0144 2.2359 -1.9219c-1.3159,-1.3554 10.2506,13.5664 29.2153,11.8212z"/>
   </g>
   <path id="_83477624" class="fil3" d="M28.9798 115.403c1.0217,-0.4763 1.8748,-0.5693 2.559,-0.2787 0.6844,0.2907 1.274,0.967001 1.7691,2.0287 0.2428,0.5208 0.3622,1.0384 0.3582,1.5525 -0.0042,0.5141 -0.1713,1.0188 -0.5013,1.5142l-9.89151 15.112 0.028 0.0602 12.8314 -5.9833c0.8013,-0.3738 1.4954,-0.4414 2.0821,-0.2029 0.5868,0.2386 1.053,0.7285 1.3987,1.4697 0.3457,0.7413 0.4213,1.4134 0.2269,2.0162 -0.1945,0.6028 -0.6925,1.0912 -1.4938,1.4648l-16.9782 7.9171c-0.981601,0.4577 -1.843,0.585 -2.584,0.3818 -0.7412,-0.2032 -1.3545,-0.8257 -1.8403,-1.8674 -0.1868,-0.4008 -0.3233,-0.7455 -0.4093,-1.0347 -0.0861,-0.2892 -0.1207,-0.5596 -0.1039,-0.8113 0.0167,-0.2517 0.0753,-0.4924 0.1754,-0.722 0.1002,-0.2297 0.2332,-0.4807 0.3989,-0.7531l9.5288 -14.8698 -0.028 -0.0601 -12.4707 5.8151c-0.8013,0.3737 -1.4955,0.4413 -2.0822,0.2028 -0.5868,-0.2386 -1.053,-0.7285 -1.3986,-1.4696 -0.3457,-0.7414 -0.4213,-1.4134 -0.2268,-2.0162 0.1943,-0.6029 0.6924,-1.0912 1.4936,-1.4648l17.1585 -8.0012zm28.6983 38.4149c0.5118,-1.0044 1.1267,-1.6029 1.8449,-1.795 0.7182,-0.1924 1.5992,-0.0225 2.643,0.5093 0.5121,0.2609 0.9248,0.5952 1.2381,1.0029 0.3132,0.4078 0.4923,0.9084 0.5372,1.5018l1.5093 17.9983 0.0592 0.0301 6.4274 -12.6147c0.4015,-0.7877 0.9067,-1.2684 1.516,-1.4416 0.6093,-0.1734 1.2782,-0.0744 2.007,0.297 0.7287,0.3712 1.202,0.8543 1.42,1.449 0.2179,0.5948 0.1262,1.2861 -0.2752,2.074l-8.5048 16.6915c-0.4917,0.965101 -1.0921,1.5956 -1.8013,1.8917 -0.709,0.2963 -1.5756,0.1834 -2.5997,-0.3385 -0.394,-0.2007 -0.7138,-0.3885 -0.9596,-0.5633 -0.2459,-0.1749 -0.4396,-0.3667 -0.5813,-0.5754 -0.1418,-0.2086 -0.2439,-0.4344 -0.3064,-0.6769 -0.0624,-0.2427 -0.1121,-0.5224 -0.1493,-0.8389l-1.6459 -17.5843 -0.0591 -0.03 -6.2469 12.2601c-0.4013,0.7878 -0.9067,1.2684 -1.516,1.4417 -0.6092,0.1733 -1.2783,0.0742 -2.0069,-0.297 -0.7288,-0.3713 -1.2021,-0.8543 -1.42,-1.4491 -0.218,-0.5947 -0.1262,-1.2862 0.2752,-2.0739l8.5951 -16.8688zm-4.9303 -4.6374c0.4978,-0.6489 1.091,-1.0226 1.7795,-1.1211 0.6886,-0.0986001 1.366,0.1079 2.0325,0.6192 0.6665,0.5114 1.0411,1.1122 1.1242,1.8029 0.083,0.6906 -0.1245,1.3603 -0.6223,2.0091l-11.7473 15.3094c-0.4979,0.6489 -1.0911,1.0226 -1.7797,1.1211 -0.6886,0.0986001 -1.366,-0.1078 -2.0323,-0.6192 -0.6665,-0.5113 -1.0411,-1.1123 -1.1242,-1.8029 -0.083,-0.6906 0.1244,-1.3603 0.6223,-2.0092l11.7473 -15.3093zm-14.3398 -13.6762c0.9134,-0.8023 1.73,-1.1371 2.4498,-1.0044 0.7196,0.1327 1.4004,0.5643 2.0423,1.2949l8.4252 9.5901c0.5251,0.5978 0.847,1.1903 0.965701,1.7775 0.1186,0.5872 -0.1458,1.1653 -0.7935,1.7343 -0.6477,0.569 -1.2549,0.7567 -1.822,0.5634 -0.567,-0.1933 -1.113,-0.5888 -1.6384,-1.1866l-6.9368 -7.8962 -3.8859 3.4138 6.0835 6.9247c0.4669,0.5314 0.7606,1.0751 0.8813,1.6312 0.1207,0.556 -0.1345,1.1111 -0.7656,1.6656 -0.631,0.5543 -1.2145,0.7358 -1.7502,0.5446 -0.5359,-0.1913 -1.0372,-0.5527 -1.504,-1.0841l-6.0836 -6.9248 -4.3343 3.8079 7.1121 8.0954c0.5252,0.5977 0.8472,1.1903 0.965801,1.7775 0.1187,0.5871 -0.1458,1.1652 -0.7934,1.7343 -0.6477,0.5689 -1.2551,0.7566 -1.822,0.5634 -0.5671,-0.1934 -1.1132,-0.5888 -1.6383,-1.1867l-8.6002 -9.78931c-0.6419,-0.7306 -0.982301,-1.4613 -1.0211,-2.1921 -0.0389,-0.7309 0.3983,-1.4976 1.3116,-2.3l13.152 -11.5544z"/>
   <path id="_82549976" class="fil3" d="M92.9802 181.566l4.5756 0c1.0831,0 1.9894,-0.2212 2.7188,-0.6632 0.7295,-0.4421 1.3209,-1.0223 1.774,-1.7407 0.4531,-0.7184 0.7736,-1.5252 0.961401,-2.4204 0.1879,-0.8952 0.2819,-1.807 0.2819,-2.7354 0,-2.3431 -0.4642,-4.1888 -1.3926,-5.5372 -0.9283,-1.3484 -2.3873,-2.0226 -4.3766,-2.0225l-4.5424 0 -0.0001 15.1194zm-5.4376 -16.3131c0,-1.2156 0.2873,-2.0501 0.8622,-2.5032 0.5746,-0.4531 1.3483,-0.6798 2.3209,-0.6797l6.6312 0c1.481,0 2.9067,0.1823 4.2772,0.547 1.3705,0.3647 2.5807,1.0003 3.6306,1.9066 1.0499,0.9062 1.8899,2.1274 2.5199,3.6637 0.6299,1.5362 0.9449,3.4759 0.9449,5.819 0,1.901 -0.2597,3.5864 -0.7791,5.0563 -0.5194,1.4699 -1.2655,2.7188 -2.2381,3.7467 -0.972501,1.0279 -2.1718,1.807 -3.5974,2.3375 -1.4258,0.5305 -3.0449,0.7957 -4.8575,0.7958l-6.5318 0c-0.972601,0 -1.7462,-0.2266 -2.3208,-0.6798 -0.5749,-0.453 -0.8622,-1.2876 -0.8621,-2.5032l-0.0001 -17.5067zm28.1331 -0.6118l-0.0638 0.0183 -0.4504 10.0974 6.1194 -1.7546 -5.6052 -8.3611zm-4.3252 -3.1749c0.0631,-0.6619 0.2683,-1.1691 0.6156,-1.5217 0.3474,-0.3526 0.8398,-0.6202 1.4772,-0.8029l1.243 -0.3565c0.5949,-0.1706 1.1703,-0.2092 1.726,-0.1155 0.5557,0.0935 1.0981,0.5015 1.627,1.2235l11.3464 15.752c0.1793,0.2245 0.3838,0.5166 0.6134,0.8761 0.2295,0.3596 0.387,0.6881 0.4723,0.985601 0.1828,0.6374 0.0991001,1.2478 -0.251,1.8311 -0.3502,0.5833 -0.8652,0.972401 -1.5451,1.1673 -0.5737,0.1645 -1.0944,0.1932 -1.5621,0.0859 -0.4676,-0.1074 -0.8703,-0.3886 -1.2077,-0.8438l-2.4354 -3.4408 -8.4142 2.4127 -0.2737 4.2178c-0.0238,0.5586 -0.1949,1.0044 -0.5134,1.3371 -0.3185,0.3328 -0.7859,0.5875 -1.402,0.7642 -0.7225,0.2071 -1.3662,0.1676 -1.9312,-0.1188 -0.565,-0.2863 -0.9481,-0.7802 -1.1491,-1.4814 -0.0853,-0.2975 -0.1259,-0.6595 -0.1217,-1.0861 0.004,-0.4265 0.0227,-0.7826 0.0559,-1.0681l1.6298 -19.8177zm11.4969 -1.0023c-0.5974,-0.9559 -0.7935,-1.7914 -0.5884,-2.5059 0.2049,-0.7147 0.8043,-1.3823 1.7978,-2.0032 0.4874,-0.3045 0.986501,-0.4861 1.4973,-0.5446 0.5108,-0.0585 1.0321,0.0458 1.564,0.313l16.2049 7.9761 0.0563 -0.0352 -7.5025 -12.0066c-0.4686,-0.7498 -0.6203,-1.4304 -0.4551,-2.0419 0.1653,-0.6115 0.5947,-1.1339 1.2883,-1.5674 0.6937,-0.4333 1.3514,-0.5903 1.9735,-0.4707 0.622,0.1194 1.1674,0.5542 1.636,1.304l9.92721 15.8868c0.5739,0.9185 0.8051,1.7579 0.6938,2.5183 -0.1113,0.7603 -0.6545,1.4449 -1.6292,2.054 -0.375,0.2344 -0.7006,0.4117 -0.977101,0.5324 -0.2766,0.1207 -0.5407,0.188 -0.7926,0.202 -0.2518,0.0141 -0.4979,-0.0147 -0.738,-0.0861 -0.2402,-0.0715 -0.5056,-0.1728 -0.796,-0.3041l-15.9203 -7.6456 -0.0563 0.0351 7.2916 11.669c0.4686,0.7498 0.6202,1.4305 0.455,2.0421 -0.1652,0.6114 -0.5947,1.1339 -1.2882,1.5673 -0.6936,0.4334 -1.3514,0.5903 -1.9735,0.4707 -0.622,-0.1194 -1.1674,-0.5542 -1.6359,-1.304l-10.0326 -16.0555zm19.1074 -12.9893c-0.6172,-0.5365 -0.9541,-1.1515 -1.0103,-1.8447 -0.0563,-0.6934 0.1911,-1.3569 0.7422,-1.9909 0.551,-0.634 1.1737,-0.971301 1.8681,-1.0119 0.6944,-0.0408 1.3501,0.2071 1.9674,0.7437l5.9555 5.1771 -1.4944 -12.6338c-0.0472,-0.4511 -0.0533,-0.8737 -0.0181,-1.2678 0.0351,-0.3943 0.2122,-0.7748 0.5312,-1.1419 0.4206,-0.4837 0.9545,-0.8031 1.6017,-0.9579 0.6472,-0.1551 1.2294,-0.0079 1.7466,0.4418 0.317,0.2756 0.5257,0.5743 0.6266,0.8963 0.1009,0.3219 0.1634,0.6544 0.1873,0.997501l0.7747 8.0541 11.9109 1.6114c0.4432,0.0631 0.8707,0.1272 1.2826,0.1923 0.4119,0.0652 0.7513,0.2138 1.0183,0.4459 0.3837,0.3336 0.6462,0.6716 0.7878,1.0142 0.1414,0.3427 0.2002,0.6793 0.1763,1.0101 -0.0239,0.3306 -0.1113,0.6501 -0.262,0.9584 -0.1508,0.3082 -0.335,0.5874 -0.5525,0.8377 -0.3626,0.417 -0.727,0.6933 -1.0936,0.8286 -0.3666,0.1353 -0.8901,0.1562 -1.5703,0.0627l-11.4182 -1.6223 0.2944 4.2099 4.0788 3.5457c0.6173,0.5366 0.9541,1.1515 1.0104,1.8448 0.0564,0.6933 -0.191,1.3568 -0.7421,1.9908 -0.5511,0.6339 -1.1738,0.971301 -1.8683,1.012 -0.6943,0.0407 -1.35,-0.2072 -1.9673,-0.7438l-14.5637 -12.66zm13.4092 -15.232c-1.1018,-0.5138 -1.7366,-1.1269 -1.9044,-1.8393 -0.1677,-0.7123 -0.0462,-1.5092 0.3648,-2.3907l5.3948 -11.5692c0.3364,-0.7212 0.7495,-1.2541 1.2394,-1.5988 0.4901,-0.3447 1.1256,-0.3348 1.907,0.0295 0.7813,0.3643 1.1974,0.8449 1.2483,1.4419 0.0509,0.5968 -0.0918,1.2558 -0.4281,1.9771l-4.442 9.5257 4.6879 2.186 3.8954 -8.3539c0.2989,-0.6411 0.6787,-1.1285 1.1394,-1.4625 0.4605,-0.334 1.0714,-0.3235 1.8328,0.0314 0.7612,0.3551 1.162,0.8164 1.2022,1.3838 0.0402,0.5676 -0.0892,1.1718 -0.3882,1.813l-3.8954 8.3537 5.2288 2.4382 4.554 -9.76621c0.3363,-0.721 0.7494,-1.254 1.2395,-1.5987 0.4899,-0.3447 1.1255,-0.3349 1.9069,0.0295 0.7812,0.3642 1.1973,0.8449 1.2483,1.4418 0.0508,0.5969 -0.0919,1.2559 -0.4281,1.9771l-5.5069 11.8096c-0.4111,0.8815 -0.9434,1.4868 -1.5969,1.8162 -0.6535,0.3293 -1.5314,0.2372 -2.6332,-0.2765l-15.8663 -7.3987z"/>
   <path id="_79698496" class="fil1" d="M175.558 111.436c0.1271,-0.6473 0.4647,-1.1584 1.0191,-1.5241 0.5467,-0.3672 1.1474,-0.4865 1.7948,-0.3594 0.6549,0.1287 1.1736,0.4678 1.5409,1.0144 0.3748,0.5482 0.494,1.1491 0.367,1.7964 -0.1287,0.6549 -0.4663,1.166 -1.0207,1.5317 -0.5451,0.3596 -1.1536,0.4774 -1.8085,0.3488 -0.6474,-0.1272 -1.1584,-0.4648 -1.5257,-1.0114 -0.3747,-0.5483 -0.4941,-1.149 -0.3669,-1.7964l0 0zm2.8901 -2.2719c-0.7539,-0.1481 -1.4536,-0.0087 -2.0838,0.4213 -0.6378,0.4284 -1.03,1.0158 -1.1795,1.7774 -0.1466,0.7462 -0.0056,1.4384 0.4227,2.0762 0.4285,0.6377 1.0159,1.0299 1.7698,1.178 0.7539,0.148 1.4537,0.0086 2.0899,-0.4121 0.6455,-0.427 1.0376,-1.0143 1.1857,-1.7683 0.1495,-0.7616 0.0087,-1.4536 -0.4274,-2.093 -0.4284,-0.6378 -1.0234,-1.0314 -1.7774,-1.1795l0 0zm-0.996401 1.8924c0.2361,0.0464 0.3674,0.1829 0.4108,0.4049 0.0233,0.1232 0.0133,0.2953 -0.0302,0.5162l-0.0941 0.4797 -1.0891 -0.2138 0.0882 -0.4494c0.0584,-0.297 0.1383,-0.5027 0.2414,-0.6248 0.094,-0.1161 0.2597,-0.1547 0.473,-0.1128l0 0zm-1.2637 1.6422l3.0006 0.5892 0.1031 -0.5254 -1.1804 -0.2318 0.0808 -0.4113c0.0553,-0.2818 0.1247,-0.4738 0.2141,-0.567 0.1441,-0.1694 0.3905,-0.2159 0.7408,-0.1471l0.2361 0.0463 0.1004 0.0118c0.0091,-0.006 0.0244,-0.003 0.0321,-0.0016 0.0091,-0.0062 0.0243,-0.0031 0.0319,-0.0017l0.0988001 -0.5026 -0.0412 0.0078c-0.0258,0.0107 -0.0806,0.0079 -0.1583,0.0005 -0.0852,-0.0088 -0.1614,-0.0237 -0.23,-0.0372l-0.2207 -0.0435c-0.1447,-0.0283 -0.3152,-0.0064 -0.496,0.0688 -0.1733,0.0767 -0.3052,0.2248 -0.3896,0.4535 0.0054,-0.1889 -0.0119,-0.3425 -0.0595,-0.4625 -0.092,-0.2159 -0.2707,-0.3538 -0.5372,-0.4061 -0.3807,-0.0748 -0.662,0.0282 -0.8528,0.315 -0.1029,0.1616 -0.1949,0.4283 -0.2666,0.7939l-0.2064 1.051z"/>
  </g>
 </g>
</svg>
