<?xml version="1.0" encoding="UTF-8" standalone="no"?>
<!-- Created with Inkscape (http://www.inkscape.org/) -->
<svg
   xmlns:svg="http://www.w3.org/2000/svg"
   xmlns="http://www.w3.org/2000/svg"
   version="1.0"
   width="324.08154"
   height="463.22632"
   viewBox="0 0 324.08154 463.22632"
   id="svg2"
   xml:space="preserve"><defs
   id="defs74" />
	
		<g
   id="Vordergrund">
		</g>
		<g
   id="Hilfslinien_anzeigen">
		</g>
		<g
   id="Ebene-1">
			<polygon
   points="162.04102,11.02124 9.14502,137.21313 58.71094,454.72632 162.04102,454.72632 265.37109,454.72632 314.93652,137.21313 162.04102,11.02124 "
   style="fill:#ffea00;stroke:#ffea00;stroke-width:0.28349999;stroke-miterlimit:3.8636899"
   id="polygon9" />
			<g
   id="g11">
				<path
   d="M 162.04102,11.02124 L 9.14502,137.21313 L 58.71094,454.72631 L 162.04102,454.72631 L 265.3711,454.72631 L 314.93653,137.21313 L 162.04102,11.02124 z M 162.04102,463.22632 L 51.43457,463.22632 L 0,133.73999 L 162.04102,0 L 324.08155,133.73999 L 272.64698,463.22632 L 162.04102,463.22632 L 162.04102,463.22632 z "
   id="path13" />
				<g
   id="g15">
					<g
   id="g17">
						<path
   d="M 130.8623,410.23022 C 130.8623,407.88452 130.93261,406.48461 131.00244,405.32934 L 127.25683,405.32934 L 127.08203,407.60473 L 127.01221,407.60473 C 126.20703,406.20483 124.667,404.94457 122.07666,404.94457 C 117.98096,404.94457 114.34082,408.34008 114.34082,413.94066 C 114.34082,418.77074 117.35107,422.27123 121.58643,422.27123 C 123.82666,422.27123 125.57666,421.25609 126.55713,419.75121 L 126.62695,419.75121 L 126.62695,421.22094 C 126.62695,424.89672 124.52685,426.36694 121.72656,426.36694 C 119.66113,426.36694 117.84082,425.7019 116.75586,425.07153 L 115.81104,428.3269 C 117.28125,429.23706 119.59131,429.69213 121.76124,429.69213 C 124.10694,429.69213 126.55714,429.2019 128.34229,427.6267 C 130.1626,426.01684 130.86231,423.46166 130.86231,419.89086 L 130.86231,410.23022 L 130.8623,410.23022 z M 126.55713,414.92065 C 126.55713,415.4104 126.48682,416.00561 126.38184,416.46069 C 125.89209,418.00073 124.4917,419.05102 122.88184,419.05102 C 120.18653,419.05102 118.71631,416.70581 118.71631,413.80053 C 118.71631,410.3352 120.50147,408.2351 122.91651,408.2351 C 124.73682,408.2351 125.96192,409.42504 126.417,411.00024 C 126.52198,411.35034 126.55714,411.77026 126.55714,412.15503 L 126.55714,414.92065 L 126.55713,414.92065 z "
   style="fill-rule:evenodd"
   id="path19" />
						<path
   d="M 149.93701,415.0603 C 150.00683,414.64038 150.07666,414.0105 150.07666,413.20532 C 150.07666,409.45971 148.2915,404.90942 142.72607,404.90942 C 137.26562,404.90942 134.39502,409.35473 134.39502,414.08032 C 134.39502,419.29614 137.65039,422.72632 143.18115,422.72632 C 145.63135,422.72632 147.66162,422.23609 149.13183,421.64136 L 148.50146,418.66577 C 147.20654,419.156 145.77099,419.47095 143.77587,419.47095 C 141.04589,419.47095 138.63036,418.10572 138.52538,415.02564 L 149.93701,415.0603 z M 138.52539,412.01538 C 138.70068,410.26489 139.8208,407.84985 142.48096,407.84985 C 145.35108,407.84985 146.05127,410.44018 146.01612,412.01538 L 138.52539,412.01538 z "
   style="fill-rule:evenodd"
   id="path21" />
						<path
   d="M 153.5293,417.58081 C 153.5293,419.33081 153.45948,421.22095 153.38916,422.37622 L 157.06445,422.37622 L 157.2749,419.82104 L 157.34472,419.82104 C 158.56982,421.92114 160.52978,422.76147 162.73534,422.76147 C 166.58544,422.76147 170.43602,419.71606 170.47118,413.59057 C 170.47118,408.40991 167.53075,404.94457 163.36522,404.94457 C 160.81004,404.94457 158.95458,406.02953 157.90477,407.67455 L 157.83446,407.67455 L 157.83446,397.52367 L 153.52928,397.52367 L 153.52928,417.58081 L 153.5293,417.58081 z M 157.83447,412.57544 C 157.83447,412.15503 157.90478,411.77026 157.97461,411.45532 C 158.42969,409.56518 160.04004,408.30493 161.79004,408.30493 C 164.66016,408.30493 166.0957,410.75513 166.0957,413.76538 C 166.0957,417.19556 164.45019,419.36597 161.75488,419.36597 C 159.8999,419.36597 158.39502,418.07105 157.93945,416.35572 C 157.86963,416.04078 157.83447,415.69068 157.83447,415.34058 L 157.83447,412.57544 L 157.83447,412.57544 z "
   style="fill-rule:evenodd"
   id="path23" />
						<path
   d="M 178.33447,422.37622 L 178.33447,405.32934 L 173.99365,405.32934 L 173.99365,422.37622 L 178.33447,422.37622 z M 176.16406,402.70435 C 177.7041,402.70435 178.71924,401.61939 178.68408,400.25415 C 178.68408,398.85376 177.7041,397.80395 176.16406,397.80395 C 174.65869,397.80395 173.60888,398.85375 173.60888,400.25415 C 173.60888,401.61938 174.62402,402.70435 176.1289,402.70435 L 176.16406,402.70435 z "
   style="fill-rule:evenodd"
   id="path25" />
						<path
   d="M 197.40625,415.0603 C 197.47656,414.64038 197.54639,414.0105 197.54639,413.20532 C 197.54639,409.45971 195.76123,404.90942 190.1958,404.90942 C 184.73535,404.90942 181.86475,409.35473 181.86475,414.08032 C 181.86475,419.29614 185.12012,422.72632 190.65088,422.72632 C 193.10108,422.72632 195.13135,422.23609 196.60156,421.64136 L 195.97119,418.66577 C 194.67627,419.156 193.24121,419.47095 191.2456,419.47095 C 188.51562,419.47095 186.10009,418.10572 185.99511,415.02564 L 197.40625,415.0603 z M 185.99512,412.01538 C 186.17041,410.26489 187.29053,407.84985 189.95069,407.84985 C 192.82081,407.84985 193.521,410.44018 193.48585,412.01538 L 185.99512,412.01538 z "
   style="fill-rule:evenodd"
   id="path27" />
						<path
   d="M 201.73389,402.17896 L 201.73389,405.32935 L 199.28369,405.32935 L 199.28369,408.55005 L 201.73389,408.55005 L 201.73389,416.56567 C 201.73389,418.8059 202.15381,420.34594 203.06397,421.32592 C 203.86915,422.20141 205.19922,422.76147 206.77442,422.76147 C 208.13965,422.76147 209.25977,422.55151 209.88965,422.30639 L 209.81983,419.01586 C 209.3296,419.156 208.94483,419.22582 208.13965,419.22582 C 206.49463,419.22582 205.93457,418.14086 205.93457,416.07543 L 205.93457,408.55004 L 210.02978,408.55004 L 210.02978,405.32934 L 205.93457,405.32934 L 205.93457,400.95385 L 201.73389,402.17896 z "
   style="fill-rule:evenodd"
   id="path29" />
					</g>
					<g
   id="g31">
						<path
   d="M 70.94824,387.37622 L 70.94824,378.94067 C 70.94824,375.05493 70.91308,371.93969 70.73828,368.89428 L 70.84326,368.85912 C 71.99853,371.51976 73.53857,374.42504 75.07861,376.98021 L 81.23925,387.37621 L 85.68456,387.37621 L 85.68456,363.78392 L 81.69433,363.78392 L 81.69433,372.00951 C 81.69433,375.61498 81.79931,378.66039 82.07958,381.81078 L 82.00927,381.81078 C 80.92431,379.2556 79.55907,376.52514 77.98388,373.89965 L 71.89355,363.78393 L 66.99267,363.78393 L 66.99267,387.37622 L 70.94824,387.37622 z "
   style="fill-rule:evenodd"
   id="path33" />
						<path
   d="M 103.63428,377.12036 C 103.63428,373.40991 102.05908,369.94458 96.59864,369.94458 C 93.90333,369.94458 91.69776,370.67944 90.438,371.44946 L 91.27784,374.24975 C 92.43311,373.51489 94.18311,372.98998 95.86329,372.98998 C 98.87354,372.98998 99.32862,374.84496 99.32862,375.96508 L 99.32862,376.24535 C 93.02833,376.21019 89.2129,378.3806 89.2129,382.68578 C 89.2129,385.27611 91.13819,387.76146 94.56837,387.76146 C 96.77345,387.76146 98.5586,386.81615 99.6089,385.48607 L 99.71388,385.48607 L 99.99367,387.37621 L 103.87941,387.37621 C 103.70412,386.32592 103.63429,384.82103 103.63429,383.281 L 103.63429,377.12036 L 103.63428,377.12036 z M 99.43359,381.39087 C 99.43359,381.67066 99.39892,382.02075 99.29394,382.33569 C 98.90869,383.56079 97.64843,384.6809 95.93359,384.6809 C 94.56836,384.6809 93.48291,383.91088 93.48291,382.2307 C 93.48291,379.64037 96.38867,378.97533 99.43359,379.04564 L 99.43359,381.39087 z "
   style="fill-rule:evenodd"
   id="path35" />
						<path
   d="M 108.69189,367.17896 L 108.69189,370.32935 L 106.24169,370.32935 L 106.24169,373.55005 L 108.69189,373.55005 L 108.69189,381.56567 C 108.69189,383.8059 109.11181,385.34594 110.02197,386.32592 C 110.82715,387.20141 112.15722,387.76147 113.73242,387.76147 C 115.09765,387.76147 116.21777,387.55151 116.84765,387.30639 L 116.77783,384.01586 C 116.2876,384.156 115.90234,384.22582 115.09765,384.22582 C 113.45214,384.22582 112.89208,383.14086 112.89208,381.07543 L 112.89208,373.55004 L 116.98778,373.55004 L 116.98778,370.32934 L 112.89208,370.32934 L 112.89208,365.95385 L 108.69189,367.17896 z "
   style="fill-rule:evenodd"
   id="path37" />
						<path
   d="M 135.49561,370.32935 L 131.19043,370.32935 L 131.19043,380.62085 C 131.19043,381.1106 131.08545,381.56567 130.94531,381.95093 C 130.49023,383.03589 129.37011,384.26099 127.65478,384.26099 C 125.37988,384.26099 124.46972,382.44068 124.46972,379.60523 L 124.46972,370.32935 L 120.16406,370.32935 L 120.16406,380.34058 C 120.16406,385.90601 122.99951,387.76148 126.11474,387.76148 C 129.16015,387.76148 130.84033,386.01099 131.57568,384.78589 L 131.6455,384.78589 L 131.85546,387.37622 L 135.63573,387.37622 C 135.56591,385.97632 135.49559,384.29614 135.49559,382.26587 L 135.49559,370.32935 L 135.49561,370.32935 z "
   style="fill-rule:evenodd"
   id="path39" />
						<path
   d="M 140.13477,387.37622 L 144.44043,387.37622 L 144.44043,378.55542 C 144.44043,378.06519 144.4751,377.61011 144.58008,377.22534 C 144.96533,375.30005 146.36524,373.96997 148.43067,373.96997 C 148.95557,373.96997 149.34083,374.03979 149.72608,374.11011 L 149.72608,370.04956 C 149.37598,369.97925 149.13087,369.94458 148.71094,369.94458 C 146.89063,369.94458 144.89551,371.16968 144.05518,373.58472 L 143.91504,373.58472 L 143.7749,370.32935 L 140.02978,370.32935 C 140.13476,371.86988 140.16992,373.5149 140.16992,375.82496 L 140.13477,387.37622 z "
   style="fill-rule:evenodd"
   id="path41" />
						<path
   d="M 151.54443,386.53638 C 152.8042,387.23609 154.65966,387.76148 156.72509,387.76148 C 161.24023,387.76148 163.65575,385.48609 163.65575,382.40601 C 163.65575,379.8855 162.18554,378.31031 159.10497,377.19019 C 156.93505,376.42017 156.12987,375.89527 156.12987,374.80982 C 156.12987,373.76002 156.96971,373.02466 158.50975,373.02466 C 160.01512,373.02466 161.38036,373.58472 162.11522,374.00513 L 162.95555,370.95972 C 161.97508,370.43433 160.33006,369.94458 158.43993,369.94458 C 154.48436,369.94458 151.9995,372.28979 151.9995,375.30005 C 151.96434,377.29517 153.36425,379.11548 156.68993,380.27075 C 158.79003,381.00561 159.49022,381.60083 159.49022,382.75561 C 159.49022,383.87573 158.64989,384.64623 156.75975,384.64623 C 155.21971,384.64623 153.36424,384.01586 152.38426,383.42064 L 151.54443,386.53638 z "
   style="fill-rule:evenodd"
   id="path43" />
						<path
   d="M 179.13281,383.66577 C 178.29297,384.01587 177.24267,384.33081 175.7373,384.33081 C 172.79736,384.33081 170.52197,382.33569 170.52197,378.83569 C 170.52197,375.71997 172.44726,373.30493 175.7373,373.30493 C 177.27783,373.30493 178.29296,373.65503 178.99267,373.96997 L 179.76269,370.74976 C 178.78271,370.29468 177.17285,369.94458 175.59765,369.94458 C 169.61181,369.94458 166.11132,373.93481 166.11132,379.04565 C 166.11132,384.33081 169.57665,387.76147 174.89745,387.76147 C 177.0327,387.76147 178.81786,387.27124 179.72802,386.85131 L 179.13281,383.66577 z "
   style="fill-rule:evenodd"
   id="path45" />
						<path
   d="M 182.9209,387.37622 L 187.26123,387.37622 L 187.26123,377.19018 C 187.26123,376.69995 187.29639,376.24536 187.43652,375.89526 C 187.92627,374.59985 189.08154,373.47973 190.76172,373.47973 C 193.14209,373.47973 194.05176,375.3352 194.05176,377.82055 L 194.05176,387.37621 L 198.35742,387.37621 L 198.35742,377.33031 C 198.35742,371.86986 195.31201,369.94457 192.40674,369.94457 C 191.32178,369.94457 190.30664,370.25951 189.46631,370.71459 C 188.59131,371.16967 187.85645,371.86986 187.33106,372.67455 L 187.26124,372.67455 L 187.26124,362.52367 L 182.92091,362.52367 L 182.92091,387.37622 L 182.9209,387.37622 z "
   style="fill-rule:evenodd"
   id="path47" />
						<path
   d="M 218.19678,370.32935 L 213.89112,370.32935 L 213.89112,380.62085 C 213.89112,381.1106 213.78614,381.56567 213.646,381.95093 C 213.19141,383.03589 212.07129,384.26099 210.35596,384.26099 C 208.08057,384.26099 207.17041,382.44068 207.17041,379.60523 L 207.17041,370.32935 L 202.86523,370.32935 L 202.86523,380.34058 C 202.86523,385.90601 205.70068,387.76148 208.81591,387.76148 C 211.86132,387.76148 213.5415,386.01099 214.27636,384.78589 L 214.34618,384.78589 L 214.55614,387.37622 L 218.3369,387.37622 C 218.26659,385.97632 218.19676,384.29614 218.19676,382.26587 L 218.19676,370.32935 L 218.19678,370.32935 z "
   style="fill-rule:evenodd"
   id="path49" />
						<path
   d="M 223.5708,367.17896 L 223.5708,370.32935 L 221.1206,370.32935 L 221.1206,373.55005 L 223.5708,373.55005 L 223.5708,381.56567 C 223.5708,383.8059 223.99072,385.34594 224.90088,386.32592 C 225.70606,387.20141 227.03613,387.76147 228.61133,387.76147 C 229.97656,387.76147 231.09668,387.55151 231.72656,387.30639 L 231.65674,384.01586 C 231.16651,384.156 230.78174,384.22582 229.97656,384.22582 C 228.33154,384.22582 227.77099,383.14086 227.77099,381.07543 L 227.77099,373.55004 L 231.86669,373.55004 L 231.86669,370.32934 L 227.77099,370.32934 L 227.77099,365.95385 L 223.5708,367.17896 z "
   style="fill-rule:evenodd"
   id="path51" />
						<path
   d="M 233.50293,387.37622 L 247.88965,387.37622 L 247.88965,383.94604 L 238.89356,383.94604 L 238.89356,383.87573 C 239.76856,382.96606 240.60889,381.98559 241.41407,380.97046 L 247.67969,372.95484 L 247.67969,370.32935 L 234.1333,370.32935 L 234.1333,373.76001 L 242.4292,373.76001 L 242.4292,373.82983 C 241.51904,374.80981 240.78369,375.61499 239.90869,376.69995 L 233.50293,384.89087 L 233.50293,387.37622 L 233.50293,387.37622 z "
   style="fill-rule:evenodd"
   id="path53" />
						<rect
   width="8.9262695"
   height="2.9751"
   x="249.6001"
   y="376.5603"
   style="fill-rule:evenodd"
   id="rect55" /> 
					</g>
				</g>
				<g
   id="g57">
					<g
   id="g59">
						<ellipse
   cx="142.52759"
   cy="110.45093"
   rx="7.4748502"
   ry="6.8999"
   id="ellipse61" /> 
						<path
   id="path63" />
					</g>
					<g
   id="g65">
						<ellipse
   cx="181.55396"
   cy="110.45093"
   rx="7.4748502"
   ry="6.8999"
   id="ellipse67" /> 
						<path
   id="path69" />
					</g>
					<path
   d="M 162.04102,125.07544 C 162.04102,125.07544 161.21485,125.25708 159.3462,125.25708 C 157.47755,125.25708 155.81202,127.55688 157.10597,131.72583 C 158.39992,135.89429 160.06495,139.77563 160.35255,140.35083 C 160.64015,140.92554 161.42921,141.64429 162.04103,141.93188 C 162.65236,141.64428 163.44191,140.92553 163.72902,140.35083 C 164.01662,139.77563 165.68214,135.89429 166.9756,131.72583 C 168.26955,127.55688 166.60402,125.25708 164.73537,125.25708 C 162.86672,125.25708 162.04102,125.07544 162.04102,125.07544 z M 126.55029,110.45093 C 126.55029,102.30542 133.70312,95.70239 142.52783,95.70239 C 151.35205,95.70239 158.50537,102.30542 158.50537,110.45093 C 158.50537,118.59644 151.35205,125.19947 142.52783,125.19947 C 133.70312,125.19946 126.55029,118.59644 126.55029,110.45093 z M 114.06543,248.44995 C 114.06543,248.44995 106.30273,224.30005 106.01514,203.02515 C 105.72803,181.75025 106.98096,175.71314 106.98096,175.71314 L 111.47754,175.71314 C 111.47754,175.71314 110.32764,189.80054 110.90283,208.77515 C 111.47754,227.75024 114.06543,248.44995 114.06543,248.44995 z M 122.11523,295.4563 L 116.25927,277.26929 L 127.97118,277.26929 L 122.11523,295.4563 z M 137.20898,295.4563 L 131.35302,277.26929 L 143.06493,277.26929 L 137.20898,295.4563 z M 165.57617,110.45093 C 165.57617,102.30542 172.72949,95.70239 181.5542,95.70239 C 190.37842,95.70239 197.53174,102.30542 197.53174,110.45093 C 197.53174,118.59644 190.37842,125.19947 181.5542,125.19947 C 172.72949,125.19946 165.57617,118.59644 165.57617,110.45093 z M 210.0166,248.44995 C 210.0166,248.44995 217.77881,224.30005 218.0664,203.02515 C 218.35399,181.75025 217.10058,175.71314 217.10058,175.71314 L 212.604,175.71314 C 212.604,175.71314 213.7539,189.80054 213.1792,208.77515 C 212.604,227.75024 210.0166,248.44995 210.0166,248.44995 z M 201.96631,295.4563 L 207.82227,277.26929 L 196.11036,277.26929 L 201.96631,295.4563 z M 186.87305,295.4563 L 192.72901,277.26929 L 181.0171,277.26929 L 186.87305,295.4563 z M 233.01611,277.38989 C 237.50341,277.40551 241.13623,281.06421 241.13623,285.55542 C 241.13623,290.0564 237.48779,293.70483 232.98682,293.70483 C 232.79444,293.70483 232.60352,293.69799 232.41455,293.6853 L 212.80078,293.6853 C 212.44043,294.54907 212.08691,295.38012 211.7417,296.17505 C 203.1167,316.01245 188.4541,338.14966 188.4541,338.14966 L 162.04101,338.14966 L 135.62744,338.14966 C 135.62744,338.14966 120.96533,316.01245 112.34033,296.17505 C 111.99463,295.38013 111.64111,294.54907 111.28125,293.6853 L 91.66748,293.6853 C 91.47803,293.698 91.2876,293.70483 91.09473,293.70483 C 86.59424,293.70483 82.94532,290.05639 82.94532,285.55542 C 82.94532,281.06421 86.57813,277.40552 91.06544,277.38989 L 105.08937,277.38989 C 97.60744,256.11499 89.76466,228.302 88.47804,211.36303 C 86.75294,188.65063 90.20314,168.52563 99.69044,155.01342 C 109.17774,141.50072 116.94044,139.20092 116.94044,139.20092 C 116.94044,139.20092 111.47755,135.17553 111.47755,118.50072 C 111.47755,101.82591 117.80275,93.77611 120.10255,90.61351 C 122.40284,87.45091 127.86525,82.27611 127.86525,82.27611 C 127.86525,82.27611 126.14015,73.65111 125.85255,64.73851 C 125.56544,55.82591 129.88282,60.54417 133.04005,62.43871 C 137.35255,65.02611 140.22755,67.61351 143.10255,72.21361 C 144.21193,73.98851 145.68995,77.67601 145.68995,77.67601 C 145.68995,77.67601 151.15235,77.1013 154.60255,77.1013 C 158.05275,77.1013 162.04103,76.90013 162.04103,76.90013 C 162.04103,76.90013 166.02931,77.1013 169.47902,77.1013 C 172.92922,77.1013 178.39162,77.67601 178.39162,77.67601 C 178.39162,77.67601 179.86965,73.98851 180.97902,72.21361 C 183.85402,67.61351 186.72902,65.02611 191.04152,62.43871 C 194.19875,60.54418 198.51662,55.82592 198.22902,64.73851 C 197.94142,73.6511 196.21632,82.27611 196.21632,82.27611 C 196.21632,82.27611 201.67921,87.45091 203.97902,90.61351 C 206.27883,93.77611 212.60402,101.82591 212.60402,118.50072 C 212.60402,135.17553 207.14162,139.20092 207.14162,139.20092 C 207.14162,139.20092 214.90383,141.50072 224.39113,155.01342 C 233.87892,168.52563 237.32863,188.65063 235.60402,211.36303 C 234.3174,228.30199 226.47414,256.11498 218.9922,277.38989 L 233.01611,277.38989 z "
   style="fill-rule:evenodd"
   id="path71" />
				</g>
			</g>
		</g>
	</svg>